<?xml version="1.0" encoding="utf-8"?>
<svg viewBox="0 0 500 500" xmlns="http://www.w3.org/2000/svg">
  <path d="M 248.259 446.755 L 25.11 309.724 L 81.454 62.073 L 375.207 62.074 L 459.408 290.085 L 248.259 446.755 Z" fill="#264DE4" style="" transform="matrix(0.999997, -0.002563, 0.002563, 0.999997, -0.651323, 0.621798)"/>
  <path d="M 351.243 151.757 L 373.17 61.915 L 82.756 63.229 L 124.846 152.063 L 351.243 151.757 Z" fill="#2965F1" style=""/>
  <path d="M 137.679 253.262 L 147.258 296.531 L 245.73 296.531 L 240.094 253.262 L 137.679 253.262 Z" fill="#EBEBEB" style="" transform="matrix(0.991622, 0.129174, -0.129174, 0.991622, 37.115593, -22.460139)"/>
  <path d="M 173.505 166.242 L 148.931 209.513 L 245.646 208.577 L 240.01 165.308 L 173.505 166.242 Z" fill="#EBEBEB" style="" transform="matrix(0.991622, 0.129174, -0.129174, 0.991622, 25.861459, -23.914409)"/>
  <path d="M 242.858 368.129 L 242.673 368.177 L 192.165 355.613 L 184.566 322.292 L 140.561 322.292 L 155.519 387.894 L 248.505 411.652 L 248.701 411.598 L 242.858 368.129 Z" fill="#EBEBEB" style="" transform="matrix(0.991622, 0.129174, -0.129174, 0.991622, 49.033873, -22.066754)"/>
  <path d="M 348.532 253.355 L 362.006 164.805 L 257.406 165.74 L 251.914 209.028 L 313.892 209.028 L 304.266 253.355 L 246.291 253.355 L 240.799 296.643 L 294.961 296.643 L 282.732 352.784 L 232.024 365.815 L 226.311 410.85 L 319.601 386.256 L 321.191 378.943 L 345.985 264.979 L 348.532 253.355 Z" fill="#FFFFFF" style="" transform="matrix(0.992049, -0.125855, 0.125855, 0.992049, -33.885559, 39.309921)"/>
  <text style="fill: rgb(251, 251, 251); font-family: OpenSymbol; font-size: 39px; font-weight: 700; white-space: pre;" x="142.59" y="121.175">EASIGN.io</text>
</svg>